<?xml version="1.0" encoding="utf-8"?>
<!-- Generator: Adobe Illustrator 22.0.1, SVG Export Plug-In . SVG Version: 6.00 Build 0)  -->
<svg version="1.1" id="Layer_1" xmlns="http://www.w3.org/2000/svg" xmlns:xlink="http://www.w3.org/1999/xlink" x="0px" y="0px"
	 viewBox="0 0 960 560" style="enable-background:new 0 0 960 560;" xml:space="preserve">
<style type="text/css">
	.st0{fill:#98FFFF;}
</style>
<path id="BSIDES-clean-_x28_c_x29_-for-ukraine-recovered_1_" class="st0" d="M118.9,275.9c0.5-0.7,1-1.3,1.6-2
	c7.4-8.4,23.5-17.4,40.7-19.8c7.5-9.4,11-20.6,10.8-31.5c-0.2-15.4-9.1-25-24.7-30.4c24.5-9.8,31.5-29.3,31.5-44.1
	c0-18.4-13-33-47.7-33H52.4L23,276.9l82.1,0C110,276.9,114.5,276.5,118.9,275.9z M88.1,151.2h27.5c14.1,0,18.1,4.6,18.1,12
	c0,8.8-7.5,16.5-22.2,16.5H82.9L88.1,151.2z M77.2,211h32.5c15.3,0,19.5,5.7,19.5,12.4c-0.3,9.7-8.1,17.4-23.2,17.4v0H71.8L77.2,211
	z M330.9,306.4c-0.4,5.7-0.3,8.9,34.3,17.1c0,0,40.7,7.5,39.7,38.5c0,0,1.1,59.5-72.7,61.8c0,0-42.1,2.5-68.7-26.7
	c0,0,16.2-16.2,21.2-37.8l8.2,8.2c0,0,17.1,19,45.5,19.3c0,0,21.5,1.6,21.5-13.5c0-8.5-14.5-10.7-36.2-16.8
	c-24.4-6.6-37.8-18.9-37.8-36.4c0-11.1,3.5-23.8,11.2-34.9c17.3,0.7,35.7-6.3,48.7-20.7c2-2.2,3.7-4.5,5.3-6.8
	c2.1-0.1,4.1-0.3,6.3-0.3c25.8-0.1,42.5,8.4,51.4,14.7c-5.3,13.4-12.7,25.5-21.9,35.9C373.3,297.3,335.7,284.2,330.9,306.4z
	 M701.4,357.7l-4.6,25.5h83.5l-6.9,37.9H647.2l29.2-160.8h125.2l-6.9,37.9h-82.4l-4.4,24.4h74.7l-6.4,35.2H701.4z M483.7,260.2
	l-29.2,160.8h-43.3l29.2-160.8H483.7z M593.7,262.1c-6.7-1.2-14-1.8-22-1.8h-59.6l-29.2,160.8h57.7c9.8,0,19.1-1,27.8-2.8
	c53-11.4,77.4-54.3,78.7-92.6C647,295.6,633.3,269.8,593.7,262.1z M601.8,333.6c-0.8,12.2-4.8,27.3-17.4,37
	c-8.5,6.6-19.4,11-32.5,11h-18.7l14.9-81.8h17.1c9.8,0,17.6,2.1,23.5,5.6C599.5,311.8,602.6,323.4,601.8,333.6z M935.3,362
	c0,0,1.1,59.5-72.7,61.8c0,0-42.1,2.5-68.7-26.7l29.4-29.6c0,0,17.1,19,45.5,19.3c0,0,21.5,1.6,21.5-13.5c0-8.5-14.5-10.7-36.2-16.8
	c-24.4-6.6-37.8-18.9-37.8-36.4c0-26.8,19.9-62.7,71.6-62.7c41-0.1,59.1,21.4,59.1,21.4l-27.3,31.4c-10.7-11-53.3-27.6-58.4-3.9
	c-0.4,5.7-0.3,9,34.3,17.1C895.6,323.5,936.3,331,935.3,362z M304.5,200.6c12.6,0,22.8,10.6,22.8,23.6c0,13-10.2,23.6-22.8,23.6
	c-12.6,0-22.8-10.6-22.8-23.6C281.7,211.2,291.9,200.6,304.5,200.6z M164.9,291.9c12.6,0,22.8,10.6,22.8,23.6
	c0,13-10.2,23.6-22.8,23.6c-12.6,0-22.8-10.6-22.8-23.6C142,302.4,152.3,291.9,164.9,291.9z M273.7,329.9
	c-8.9,54-54.4,95.1-109.2,95.1c-61.2,0-110.8-51.5-110.8-114.8c0-5.8,0.4-12.8,1.2-17.5h52.7c-8.4,22.8-2.8,50.6,16.2,67.4
	c24.4,21.6,61.6,18.2,83.1-7.8c15.7-19,18.6-44.6,9.5-65.5c-2-4.6-4.6-8.9-7.7-12.8c-2.1-2.7-4.5-5.3-7.2-7.6
	c-5.9-5.2-12.5-8.9-19.4-11.2c0,0,14.7-55.7,18.3-66.5c0,0,0,0,0,0c13.4-47.7,55.9-82.5,106.3-82.5c61.2,0,110.8,51.3,110.8,114.6
	c0,6.7-0.6,13.3-1.7,19.8l-54.3-9.7c3.2-18.3-1.7-37.4-14.7-51.1c-22.1-23.3-59.4-22.6-83.3,1.6c-13.8,14-20.1,32.7-18.8,50.5
	c1,13.1,6.1,25.7,15.4,35.5c3,3.1,6.2,5.8,9.6,8c3.5,11.1,5.4,23,5.4,35.3C275.3,317.1,274.7,323.6,273.7,329.9z"/>
</svg>
